<mxfile host="app.diagrams.net" modified="2024-06-05T02:01:11.459Z" agent="Mozilla/5.0 (Windows NT 10.0; Win64; x64) AppleWebKit/537.36 (KHTML, like Gecko) Chrome/125.0.0.0 Safari/537.36" version="24.2.0" etag="7bhdtIlo-tqj9mIaeg9b" type="github">
  <diagram name="Page-1" id="4nOJn9lRbp0YSbdRNo57">
    <mxGraphModel>
      <root>
        <mxCell id="0" />
        <mxCell id="1" parent="0" />
      </root>
    </mxGraphModel>
  </diagram>
</mxfile>
